<svg id="All" xmlns="http://www.w3.org/2000/svg" viewBox="0 0 1131.89 523"><title>overview</title><g id="TR2"><line x1="252.44" x2="252.44" y2="39" fill="#383838" stroke="#1d1d1b" stroke-miterlimit="10" stroke-width="2"/><circle cx="252.44" cy="68.07" r="29.07" fill="none" stroke="#1d1d1b" stroke-miterlimit="10" stroke-width="2"/><circle cx="252.44" cy="97.13" r="29.07" fill="none" stroke="#1d1d1b" stroke-miterlimit="10" stroke-width="2"/><line x1="252.44" y1="158.2" x2="170.44" y2="158.2" fill="none" stroke="#1d1d1b" stroke-linecap="square" stroke-miterlimit="10" stroke-width="2"/><line x1="170.44" y1="158.2" x2="170.44" y2="136.4" fill="none" stroke="#1d1d1b" stroke-linecap="square" stroke-miterlimit="10" stroke-width="2"/><line x1="170.44" y1="136.4" x2="55.98" y2="136.4" fill="none" stroke="#1d1d1b" stroke-linecap="square" stroke-miterlimit="10" stroke-width="2"/><line x1="132.91" y1="136.4" x2="132.91" y2="176.87" fill="none" stroke="#1d1d1b" stroke-linecap="square" stroke-miterlimit="10" stroke-width="2"/><line x1="55.98" y1="136.4" x2="55.98" y2="176.87" fill="none" stroke="#1d1d1b" stroke-linecap="square" stroke-miterlimit="10" stroke-width="2"/><line x1="48.03" y1="184.82" x2="63.93" y2="168.92" fill="none" stroke="#1d1d1b" stroke-linecap="square" stroke-miterlimit="10" stroke-width="2"/><line x1="63.93" y1="184.82" x2="48.03" y2="168.92" fill="none" stroke="#1d1d1b" stroke-linecap="square" stroke-miterlimit="10" stroke-width="2"/><line x1="124.96" y1="184.82" x2="140.86" y2="168.92" fill="none" stroke="#1d1d1b" stroke-linecap="square" stroke-miterlimit="10" stroke-width="2"/><line x1="140.86" y1="184.82" x2="124.96" y2="168.92" fill="none" stroke="#1d1d1b" stroke-linecap="square" stroke-miterlimit="10" stroke-width="2"/><rect x="298.04" y="43.8" width="56" height="18.6" fill="none" stroke="#1d1d1b" stroke-linecap="square" stroke-miterlimit="10" stroke-width="2"/><rect x="298.04" y="62.4" width="56" height="18.6" fill="none" stroke="#1d1d1b" stroke-linecap="square" stroke-miterlimit="10" stroke-width="2"/><rect x="298.04" y="81" width="56" height="18.6" fill="none" stroke="#1d1d1b" stroke-linecap="square" stroke-miterlimit="10" stroke-width="2"/><rect x="298.04" y="99.6" width="56" height="18.6" fill="none" stroke="#1d1d1b" stroke-linecap="square" stroke-miterlimit="10" stroke-width="2"/><line x1="244.49" y1="238.68" x2="260.39" y2="222.78" fill="none" stroke="#1d1d1b" stroke-linecap="square" stroke-miterlimit="10" stroke-width="2"/><line x1="260.39" y1="238.68" x2="244.49" y2="222.78" fill="none" stroke="#1d1d1b" stroke-linecap="square" stroke-miterlimit="10" stroke-width="2"/><line x1="243.84" y1="189.92" x2="252.44" y2="181.32" fill="none" stroke="#1d1d1b" stroke-linecap="square" stroke-miterlimit="10" stroke-width="2"/><line x1="261.04" y1="189.92" x2="252.44" y2="181.32" fill="none" stroke="#1d1d1b" stroke-linecap="square" stroke-miterlimit="10" stroke-width="2"/><line x1="243.84" y1="201.51" x2="252.44" y2="192.91" fill="none" stroke="#1d1d1b" stroke-linecap="square" stroke-miterlimit="10" stroke-width="2"/><line x1="261.04" y1="201.51" x2="252.44" y2="192.91" fill="none" stroke="#1d1d1b" stroke-linecap="square" stroke-miterlimit="10" stroke-width="2"/><line x1="252.44" y1="126.2" x2="252.44" y2="230.73" fill="none" stroke="#1d1d1b" stroke-linecap="round" stroke-miterlimit="10" stroke-width="2"/></g><g id="Opisy"><path d="M105.82,264.8v-1.68a73.74,73.74,0,0,0,5.56-5.39,16,16,0,0,0,2.22-3,5.12,5.12,0,0,0,.62-2.34,2.47,2.47,0,0,0-.92-2,4.06,4.06,0,0,0-2.66-.84,7.32,7.32,0,0,0-3.86,1.23l-.48-1.65a10.32,10.32,0,0,1,4.57-1.12,6.35,6.35,0,0,1,3.66,1,3.74,3.74,0,0,1,1.64,3.3,6.43,6.43,0,0,1-1,3.26,28.14,28.14,0,0,1-4.35,5.16c-.83.83-1.74,1.68-2.74,2.56h8.18v1.58Z" transform="translate(-30.16 -103.6)" fill="#1d1d1b"/><path d="M120.27,264.8V248.19h8.81v1.59h-6.89v5.81h6.55v1.58h-6.55v7.63Z" transform="translate(-30.16 -103.6)" fill="#1d1d1b"/><path d="M132.54,264.8V248.19h3.21a8.28,8.28,0,0,1,4.35.88,4.37,4.37,0,0,1,1.92,4,4.61,4.61,0,0,1-.94,3,4.53,4.53,0,0,1-2.68,1.53,12.89,12.89,0,0,1-2.87.26h-1.07v7Zm1.92-8.59h.79a8.12,8.12,0,0,0,3.37-.49A2.72,2.72,0,0,0,140,253a3.55,3.55,0,0,0-.49-1.87,2.57,2.57,0,0,0-1.8-1.21,11,11,0,0,0-2.14-.17h-1.09Z" transform="translate(-30.16 -103.6)" fill="#1d1d1b"/><path d="M144.13,264.8v-1.68a73.74,73.74,0,0,0,5.56-5.39,16.42,16.42,0,0,0,2.22-3,5.12,5.12,0,0,0,.62-2.34,2.5,2.5,0,0,0-.92-2,4.06,4.06,0,0,0-2.66-.84,7.32,7.32,0,0,0-3.86,1.23l-.48-1.65a10.32,10.32,0,0,1,4.57-1.12,6.37,6.37,0,0,1,3.66,1,3.74,3.74,0,0,1,1.64,3.3,6.43,6.43,0,0,1-.95,3.26,28.14,28.14,0,0,1-4.35,5.16c-.83.83-1.74,1.68-2.74,2.56h8.18v1.58Z" transform="translate(-30.16 -103.6)" fill="#1d1d1b"/><path d="M30.16,264.8v-1.68a73.19,73.19,0,0,0,5.55-5.39,16.09,16.09,0,0,0,2.23-3,5.25,5.25,0,0,0,.62-2.34,2.48,2.48,0,0,0-.93-2A4,4,0,0,0,35,249.5a7.29,7.29,0,0,0-3.85,1.23l-.48-1.65A10.29,10.29,0,0,1,35.21,248a6.34,6.34,0,0,1,3.65,1,3.72,3.72,0,0,1,1.64,3.3,6.33,6.33,0,0,1-1,3.26,28.4,28.4,0,0,1-4.34,5.16c-.83.83-1.75,1.68-2.75,2.56h8.18v1.58Z" transform="translate(-30.16 -103.6)" fill="#1d1d1b"/><path d="M44.6,264.8V248.19h8.82v1.59H46.53v5.81h6.55v1.58H46.53v7.63Z" transform="translate(-30.16 -103.6)" fill="#1d1d1b"/><path d="M56.87,264.8V248.19h3.21a8.28,8.28,0,0,1,4.35.88,4.37,4.37,0,0,1,1.92,4,4.66,4.66,0,0,1-.93,3,4.55,4.55,0,0,1-2.69,1.53,12.83,12.83,0,0,1-2.87.26H58.8v7Zm1.93-8.59h.78a8.17,8.17,0,0,0,3.38-.49A2.74,2.74,0,0,0,64.32,253a3.56,3.56,0,0,0-.5-1.87A2.57,2.57,0,0,0,62,250a10.93,10.93,0,0,0-2.13-.17H58.8Z" transform="translate(-30.16 -103.6)" fill="#1d1d1b"/><path d="M73.67,264.8V250.28l-3.39,2.16L69.47,251l4.38-2.78h1.67V264.8Z" transform="translate(-30.16 -103.6)" fill="#1d1d1b"/><path d="M208.13,135.93V113.4h-7.28V111h17.53v2.38H211v22.53Z" transform="translate(-30.16 -103.6)" fill="#1d1d1b"/><path d="M222.12,135.93V111h5.31a11.78,11.78,0,0,1,5.85,1.13,5.84,5.84,0,0,1,2.92,5.41,6,6,0,0,1-2.13,4.86,7.45,7.45,0,0,1-3.16,1.42,4.16,4.16,0,0,1,2.34,1.53,17.66,17.66,0,0,1,1.44,3l3.06,7.56h-3.06l-2.64-6.24a28,28,0,0,0-1.28-2.7,3.62,3.62,0,0,0-2.37-1.9,12,12,0,0,0-2.55-.21H225v11.05ZM225,122.5h1.34a10.94,10.94,0,0,0,4.45-.7,4,4,0,0,0,2.35-4,3.83,3.83,0,0,0-2-3.75,10,10,0,0,0-4.36-.7H225Z" transform="translate(-30.16 -103.6)" fill="#1d1d1b"/><path d="M240.56,135.93v-2.51a109,109,0,0,0,8.33-8.09,23.87,23.87,0,0,0,3.34-4.57,7.77,7.77,0,0,0,.93-3.49,3.73,3.73,0,0,0-1.38-3,6.07,6.07,0,0,0-4-1.26,11,11,0,0,0-5.79,1.84l-.72-2.46a15.56,15.56,0,0,1,6.86-1.69,9.5,9.5,0,0,1,5.48,1.48,5.58,5.58,0,0,1,2.46,4.94,9.58,9.58,0,0,1-1.42,4.89,43.13,43.13,0,0,1-6.52,7.75q-1.87,1.86-4.12,3.83h12.27v2.37Z" transform="translate(-30.16 -103.6)" fill="#1d1d1b"/><path d="M238.63,322.84a30.49,30.49,0,0,0,3.66,3l-1,1.15a35.36,35.36,0,0,1-5-3.87,6.88,6.88,0,0,1-4.17-1.44,7.72,7.72,0,0,1-2.25-3.31,11,11,0,0,1,.19-8,6.61,6.61,0,0,1,6.49-4.29,6.41,6.41,0,0,1,5.44,2.54,9.64,9.64,0,0,1,1.89,6,10.26,10.26,0,0,1-.87,4.25,7,7,0,0,1-2.75,3.34A6.07,6.07,0,0,1,238.63,322.84Zm-2.17-15.23a4.56,4.56,0,0,0-3.94,2.06,8.43,8.43,0,0,0-1.29,4.9,8.09,8.09,0,0,0,1.53,5.23,4.66,4.66,0,0,0,3.78,1.73,4.61,4.61,0,0,0,4-2.06,8.37,8.37,0,0,0,1.3-4.91,8,8,0,0,0-1.53-5.22A4.74,4.74,0,0,0,236.46,307.61Z" transform="translate(-30.16 -103.6)" fill="#1d1d1b"/><path d="M246.71,322.87v-1.68a73.22,73.22,0,0,0,5.55-5.39,16.11,16.11,0,0,0,2.23-3.05,5.21,5.21,0,0,0,.62-2.33,2.45,2.45,0,0,0-.93-2,4,4,0,0,0-2.66-.85,7.29,7.29,0,0,0-3.85,1.23l-.48-1.64a10.29,10.29,0,0,1,4.57-1.12,6.26,6.26,0,0,1,3.65,1,3.7,3.7,0,0,1,1.64,3.29,6.39,6.39,0,0,1-.94,3.26,29,29,0,0,1-4.35,5.17c-.83.83-1.74,1.68-2.74,2.55h8.18v1.59Z" transform="translate(-30.16 -103.6)" fill="#1d1d1b"/><path d="M667.72,135.93V113.4h-7.28V111H678v2.38H670.6v22.53Z" transform="translate(-30.16 -103.6)" fill="#1d1d1b"/><path d="M681.71,135.93V111H687a11.83,11.83,0,0,1,5.85,1.13,5.84,5.84,0,0,1,2.92,5.41,6,6,0,0,1-2.13,4.86,7.51,7.51,0,0,1-3.16,1.42,4.16,4.16,0,0,1,2.34,1.53,17.66,17.66,0,0,1,1.44,3l3.06,7.56h-3.06l-2.64-6.24a28,28,0,0,0-1.28-2.7,3.61,3.61,0,0,0-2.38-1.9,12,12,0,0,0-2.54-.21h-.85v11.05Zm2.88-13.43h1.34a10.89,10.89,0,0,0,4.44-.7,4,4,0,0,0,2.36-4,3.83,3.83,0,0,0-2-3.75,10,10,0,0,0-4.36-.7h-1.76Z" transform="translate(-30.16 -103.6)" fill="#1d1d1b"/><path d="M708,135.93V114.15l-5.08,3.24-1.21-2.2,6.57-4.17h2.5v24.91Z" transform="translate(-30.16 -103.6)" fill="#1d1d1b"/><path d="M1056.47,200.05v11.78a22.65,22.65,0,0,1-3.72,1,21,21,0,0,1-3.85.39,11.1,11.1,0,0,1-8.18-3.13,12.56,12.56,0,0,1-3.51-9.35q0-6.14,3.53-9.79a11,11,0,0,1,8.26-3.34,17.4,17.4,0,0,1,7.3,1.76l-.85,2.3a14.27,14.27,0,0,0-6.53-1.69,7.48,7.48,0,0,0-6.49,3.18,12.77,12.77,0,0,0-2.16,7.55c0,3.41,1,6,3,7.94a8.25,8.25,0,0,0,6,2.2,13.43,13.43,0,0,0,4.41-.79v-7.67h-4.9v-2.37Z" transform="translate(-30.16 -103.6)" fill="#1d1d1b"/></g><g id="_2F" data-name="2F"><line x1="227.19" y1="240.48" x2="252.44" y2="265.73" fill="none" stroke="#1d1d1b" stroke-miterlimit="10" stroke-width="2"/><line x1="252.44" y1="265.66" x2="252.44" y2="334.6" fill="none" stroke="#1d1d1b" stroke-linecap="round" stroke-miterlimit="10" stroke-width="2"/><line x1="243.84" y1="301.99" x2="252.44" y2="310.59" fill="none" stroke="#1d1d1b" stroke-linecap="square" stroke-miterlimit="10" stroke-width="2"/><line x1="261.04" y1="301.99" x2="252.44" y2="310.59" fill="none" stroke="#1d1d1b" stroke-linecap="square" stroke-miterlimit="10" stroke-width="2"/><line x1="243.84" y1="290.4" x2="252.44" y2="299" fill="none" stroke="#1d1d1b" stroke-linecap="square" stroke-miterlimit="10" stroke-width="2"/><line x1="261.04" y1="290.4" x2="252.44" y2="299" fill="none" stroke="#1d1d1b" stroke-linecap="square" stroke-miterlimit="10" stroke-width="2"/><line x1="392.44" y1="334.6" x2="14.84" y2="334.6" fill="none" stroke="#1d1d1b" stroke-miterlimit="10" stroke-width="2"/><line x1="252.38" y1="334.6" x2="252.38" y2="375.07" fill="none" stroke="#1d1d1b" stroke-linecap="square" stroke-miterlimit="10" stroke-width="2"/><line x1="244.43" y1="383.02" x2="260.33" y2="367.12" fill="none" stroke="#1d1d1b" stroke-linecap="square" stroke-miterlimit="10" stroke-width="2"/><line x1="260.33" y1="383.02" x2="244.43" y2="367.12" fill="none" stroke="#1d1d1b" stroke-linecap="square" stroke-miterlimit="10" stroke-width="2"/><line x1="121.01" y1="334.6" x2="121.01" y2="375.07" fill="none" stroke="#1d1d1b" stroke-linecap="square" stroke-miterlimit="10" stroke-width="2"/><line x1="113.06" y1="383.02" x2="128.96" y2="367.12" fill="none" stroke="#1d1d1b" stroke-linecap="square" stroke-miterlimit="10" stroke-width="2"/><line x1="128.96" y1="383.02" x2="113.06" y2="367.12" fill="none" stroke="#1d1d1b" stroke-linecap="square" stroke-miterlimit="10" stroke-width="2"/><line x1="186.7" y1="334.6" x2="186.7" y2="375.07" fill="none" stroke="#1d1d1b" stroke-linecap="square" stroke-miterlimit="10" stroke-width="2"/><line x1="178.75" y1="383.02" x2="194.65" y2="367.12" fill="none" stroke="#1d1d1b" stroke-linecap="square" stroke-miterlimit="10" stroke-width="2"/><line x1="194.65" y1="383.02" x2="178.75" y2="367.12" fill="none" stroke="#1d1d1b" stroke-linecap="square" stroke-miterlimit="10" stroke-width="2"/><line x1="318.06" y1="334.6" x2="318.06" y2="375.07" fill="none" stroke="#1d1d1b" stroke-linecap="square" stroke-miterlimit="10" stroke-width="2"/><line x1="310.11" y1="383.02" x2="326.01" y2="367.12" fill="none" stroke="#1d1d1b" stroke-linecap="square" stroke-miterlimit="10" stroke-width="2"/><line x1="326.01" y1="383.02" x2="310.11" y2="367.12" fill="none" stroke="#1d1d1b" stroke-linecap="square" stroke-miterlimit="10" stroke-width="2"/><line x1="55.98" y1="334.6" x2="55.98" y2="375.07" fill="none" stroke="#1d1d1b" stroke-linecap="square" stroke-miterlimit="10" stroke-width="2"/><line x1="48.03" y1="383.02" x2="63.93" y2="367.12" fill="none" stroke="#1d1d1b" stroke-linecap="square" stroke-miterlimit="10" stroke-width="2"/><line x1="63.93" y1="383.02" x2="48.03" y2="367.12" fill="none" stroke="#1d1d1b" stroke-linecap="square" stroke-miterlimit="10" stroke-width="2"/><line x1="383.74" y1="334.6" x2="383.74" y2="375.07" fill="none" stroke="#1d1d1b" stroke-linecap="square" stroke-miterlimit="10" stroke-width="2"/><line x1="375.79" y1="383.02" x2="391.69" y2="367.12" fill="none" stroke="#1d1d1b" stroke-linecap="square" stroke-miterlimit="10" stroke-width="2"/><line x1="391.69" y1="383.02" x2="375.79" y2="367.12" fill="none" stroke="#1d1d1b" stroke-linecap="square" stroke-miterlimit="10" stroke-width="2"/><line x1="358.51" y1="240.48" x2="383.76" y2="265.73" fill="none" stroke="#1d1d1b" stroke-miterlimit="10" stroke-width="2"/><line x1="383.76" y1="265.66" x2="383.76" y2="334.6" fill="none" stroke="#1d1d1b" stroke-linecap="round" stroke-miterlimit="10" stroke-width="2"/><line x1="375.16" y1="301.99" x2="383.76" y2="310.59" fill="none" stroke="#1d1d1b" stroke-linecap="square" stroke-miterlimit="10" stroke-width="2"/><line x1="392.36" y1="301.99" x2="383.76" y2="310.59" fill="none" stroke="#1d1d1b" stroke-linecap="square" stroke-miterlimit="10" stroke-width="2"/><line x1="375.16" y1="290.4" x2="383.76" y2="299" fill="none" stroke="#1d1d1b" stroke-linecap="square" stroke-miterlimit="10" stroke-width="2"/><line x1="392.36" y1="290.4" x2="383.76" y2="299" fill="none" stroke="#1d1d1b" stroke-linecap="square" stroke-miterlimit="10" stroke-width="2"/></g><g id="_1F" data-name="1F"><line x1="375.79" y1="238.68" x2="391.69" y2="222.78" fill="none" stroke="#1d1d1b" stroke-linecap="square" stroke-miterlimit="10" stroke-width="2"/><line x1="391.69" y1="238.68" x2="375.79" y2="222.78" fill="none" stroke="#1d1d1b" stroke-linecap="square" stroke-miterlimit="10" stroke-width="2"/><line x1="375.14" y1="189.92" x2="383.74" y2="181.32" fill="none" stroke="#1d1d1b" stroke-linecap="square" stroke-miterlimit="10" stroke-width="2"/><line x1="392.34" y1="189.92" x2="383.74" y2="181.32" fill="none" stroke="#1d1d1b" stroke-linecap="square" stroke-miterlimit="10" stroke-width="2"/><line x1="375.14" y1="201.51" x2="383.74" y2="192.91" fill="none" stroke="#1d1d1b" stroke-linecap="square" stroke-miterlimit="10" stroke-width="2"/><line x1="392.34" y1="201.51" x2="383.74" y2="192.91" fill="none" stroke="#1d1d1b" stroke-linecap="square" stroke-miterlimit="10" stroke-width="2"/><line x1="383.74" y1="158.2" x2="449.42" y2="158.2" fill="none" stroke="#1d1d1b" stroke-linecap="square" stroke-miterlimit="10" stroke-width="2"/><line x1="449.42" y1="158.2" x2="449.42" y2="334.6" fill="none" stroke="#1d1d1b" stroke-linecap="square" stroke-miterlimit="10" stroke-width="2"/><line x1="449.42" y1="334.6" x2="449.42" y2="375.07" fill="none" stroke="#1d1d1b" stroke-linecap="square" stroke-miterlimit="10" stroke-width="2"/><line x1="441.47" y1="383.02" x2="457.37" y2="367.12" fill="none" stroke="#1d1d1b" stroke-linecap="square" stroke-miterlimit="10" stroke-width="2"/><line x1="457.37" y1="383.02" x2="441.47" y2="367.12" fill="none" stroke="#1d1d1b" stroke-linecap="square" stroke-miterlimit="10" stroke-width="2"/><line x1="515.11" y1="334.6" x2="515.11" y2="375.07" fill="none" stroke="#1d1d1b" stroke-linecap="square" stroke-miterlimit="10" stroke-width="2"/><line x1="507.16" y1="383.02" x2="523.06" y2="367.12" fill="none" stroke="#1d1d1b" stroke-linecap="square" stroke-miterlimit="10" stroke-width="2"/><line x1="523.06" y1="383.02" x2="507.16" y2="367.12" fill="none" stroke="#1d1d1b" stroke-linecap="square" stroke-miterlimit="10" stroke-width="2"/><line x1="580.79" y1="334.6" x2="580.79" y2="375.07" fill="none" stroke="#1d1d1b" stroke-linecap="square" stroke-miterlimit="10" stroke-width="2"/><line x1="572.84" y1="383.02" x2="588.74" y2="367.12" fill="none" stroke="#1d1d1b" stroke-linecap="square" stroke-miterlimit="10" stroke-width="2"/><line x1="588.74" y1="383.02" x2="572.84" y2="367.12" fill="none" stroke="#1d1d1b" stroke-linecap="square" stroke-miterlimit="10" stroke-width="2"/><line x1="843.52" y1="334.6" x2="843.52" y2="375.07" fill="none" stroke="#1d1d1b" stroke-linecap="square" stroke-miterlimit="10" stroke-width="2"/><line x1="835.57" y1="383.02" x2="851.47" y2="367.12" fill="none" stroke="#1d1d1b" stroke-linecap="square" stroke-miterlimit="10" stroke-width="2"/><line x1="851.47" y1="383.02" x2="835.57" y2="367.12" fill="none" stroke="#1d1d1b" stroke-linecap="square" stroke-miterlimit="10" stroke-width="2"/><line x1="777.84" y1="334.6" x2="777.84" y2="375.07" fill="none" stroke="#1d1d1b" stroke-linecap="square" stroke-miterlimit="10" stroke-width="2"/><line x1="769.89" y1="383.02" x2="785.79" y2="367.12" fill="none" stroke="#1d1d1b" stroke-linecap="square" stroke-miterlimit="10" stroke-width="2"/><line x1="785.79" y1="383.02" x2="769.89" y2="367.12" fill="none" stroke="#1d1d1b" stroke-linecap="square" stroke-miterlimit="10" stroke-width="2"/><line x1="712.15" y1="334.6" x2="712.15" y2="375.07" fill="none" stroke="#1d1d1b" stroke-linecap="square" stroke-miterlimit="10" stroke-width="2"/><line x1="704.2" y1="383.02" x2="720.1" y2="367.12" fill="none" stroke="#1d1d1b" stroke-linecap="square" stroke-miterlimit="10" stroke-width="2"/><line x1="720.1" y1="383.02" x2="704.2" y2="367.12" fill="none" stroke="#1d1d1b" stroke-linecap="square" stroke-miterlimit="10" stroke-width="2"/><line x1="646.47" y1="334.6" x2="646.47" y2="375.07" fill="none" stroke="#1d1d1b" stroke-linecap="square" stroke-miterlimit="10" stroke-width="2"/><line x1="638.52" y1="383.02" x2="654.42" y2="367.12" fill="none" stroke="#1d1d1b" stroke-linecap="square" stroke-miterlimit="10" stroke-width="2"/><line x1="654.42" y1="383.02" x2="638.52" y2="367.12" fill="none" stroke="#1d1d1b" stroke-linecap="square" stroke-miterlimit="10" stroke-width="2"/><line x1="441.64" y1="334.6" x2="851.38" y2="334.6" fill="none" stroke="#1d1d1b" stroke-linecap="square" stroke-miterlimit="10" stroke-width="2"/><line x1="686.93" y1="240.48" x2="712.18" y2="265.73" fill="none" stroke="#1d1d1b" stroke-miterlimit="10" stroke-width="2"/><line x1="712.18" y1="265.66" x2="712.18" y2="334.6" fill="none" stroke="#1d1d1b" stroke-linecap="round" stroke-miterlimit="10" stroke-width="2"/><line x1="703.58" y1="301.99" x2="712.18" y2="310.59" fill="none" stroke="#1d1d1b" stroke-linecap="square" stroke-miterlimit="10" stroke-width="2"/><line x1="720.78" y1="301.99" x2="712.18" y2="310.59" fill="none" stroke="#1d1d1b" stroke-linecap="square" stroke-miterlimit="10" stroke-width="2"/><line x1="703.58" y1="290.4" x2="712.18" y2="299" fill="none" stroke="#1d1d1b" stroke-linecap="square" stroke-miterlimit="10" stroke-width="2"/><line x1="720.78" y1="290.4" x2="712.18" y2="299" fill="none" stroke="#1d1d1b" stroke-linecap="square" stroke-miterlimit="10" stroke-width="2"/><line x1="818.26" y1="240.48" x2="843.51" y2="265.73" fill="none" stroke="#1d1d1b" stroke-miterlimit="10" stroke-width="2"/><line x1="843.51" y1="265.66" x2="843.51" y2="334.6" fill="none" stroke="#1d1d1b" stroke-linecap="round" stroke-miterlimit="10" stroke-width="2"/><line x1="383.74" y1="158.2" x2="383.74" y2="230.83" fill="none" stroke="#1d1d1b" stroke-linecap="round" stroke-miterlimit="10" stroke-width="2"/></g><g id="TR1"><line x1="704.2" y1="238.68" x2="720.1" y2="222.78" fill="none" stroke="#1d1d1b" stroke-linecap="square" stroke-miterlimit="10" stroke-width="2"/><line x1="720.1" y1="238.68" x2="704.2" y2="222.78" fill="none" stroke="#1d1d1b" stroke-linecap="square" stroke-miterlimit="10" stroke-width="2"/><line x1="703.55" y1="189.92" x2="712.15" y2="181.32" fill="none" stroke="#1d1d1b" stroke-linecap="square" stroke-miterlimit="10" stroke-width="2"/><line x1="720.75" y1="189.92" x2="712.15" y2="181.32" fill="none" stroke="#1d1d1b" stroke-linecap="square" stroke-miterlimit="10" stroke-width="2"/><line x1="703.55" y1="201.51" x2="712.15" y2="192.91" fill="none" stroke="#1d1d1b" stroke-linecap="square" stroke-miterlimit="10" stroke-width="2"/><line x1="720.75" y1="201.51" x2="712.15" y2="192.91" fill="none" stroke="#1d1d1b" stroke-linecap="square" stroke-miterlimit="10" stroke-width="2"/><line x1="712.18" y1="158.2" x2="630.18" y2="158.2" fill="none" stroke="#1d1d1b" stroke-linecap="square" stroke-miterlimit="10" stroke-width="2"/><line x1="630.18" y1="158.2" x2="630.18" y2="136.4" fill="none" stroke="#1d1d1b" stroke-linecap="square" stroke-miterlimit="10" stroke-width="2"/><line x1="630.18" y1="136.4" x2="515.72" y2="136.4" fill="none" stroke="#1d1d1b" stroke-linecap="square" stroke-miterlimit="10" stroke-width="2"/><line x1="515.72" y1="136.4" x2="515.72" y2="176.87" fill="none" stroke="#1d1d1b" stroke-linecap="square" stroke-miterlimit="10" stroke-width="2"/><line x1="507.77" y1="184.82" x2="523.67" y2="168.92" fill="none" stroke="#1d1d1b" stroke-linecap="square" stroke-miterlimit="10" stroke-width="2"/><line x1="523.67" y1="184.82" x2="507.77" y2="168.92" fill="none" stroke="#1d1d1b" stroke-linecap="square" stroke-miterlimit="10" stroke-width="2"/><line x1="592.65" y1="136.99" x2="592.65" y2="177.46" fill="none" stroke="#1d1d1b" stroke-linecap="square" stroke-miterlimit="10" stroke-width="2"/><line x1="584.7" y1="185.41" x2="600.6" y2="169.51" fill="none" stroke="#1d1d1b" stroke-linecap="square" stroke-miterlimit="10" stroke-width="2"/><line x1="600.6" y1="185.41" x2="584.7" y2="169.51" fill="none" stroke="#1d1d1b" stroke-linecap="square" stroke-miterlimit="10" stroke-width="2"/><line x1="712.18" x2="712.18" y2="39" fill="#383838" stroke="#1d1d1b" stroke-miterlimit="10" stroke-width="2"/><circle cx="712.18" cy="68.07" r="29.07" fill="none" stroke="#1d1d1b" stroke-miterlimit="10" stroke-width="2"/><circle cx="712.18" cy="97.13" r="29.07" fill="none" stroke="#1d1d1b" stroke-miterlimit="10" stroke-width="2"/><rect x="757.11" y="43.8" width="56" height="18.6" fill="none" stroke="#1d1d1b" stroke-linecap="square" stroke-miterlimit="10" stroke-width="2"/><rect x="757.11" y="62.4" width="56" height="18.6" fill="none" stroke="#1d1d1b" stroke-linecap="square" stroke-miterlimit="10" stroke-width="2"/><rect x="757.11" y="81" width="56" height="18.6" fill="none" stroke="#1d1d1b" stroke-linecap="square" stroke-miterlimit="10" stroke-width="2"/><rect x="757.11" y="99.6" width="56" height="18.6" fill="none" stroke="#1d1d1b" stroke-linecap="square" stroke-miterlimit="10" stroke-width="2"/><line x1="712.15" y1="126.2" x2="712.15" y2="231.03" fill="none" stroke="#1d1d1b" stroke-linecap="round" stroke-miterlimit="10" stroke-width="2"/></g><g id="GEN"><line x1="1009.78" y1="238.68" x2="1025.68" y2="222.78" fill="none" stroke="#1d1d1b" stroke-linecap="square" stroke-miterlimit="10" stroke-width="2"/><line x1="1025.68" y1="238.68" x2="1009.78" y2="222.78" fill="none" stroke="#1d1d1b" stroke-linecap="square" stroke-miterlimit="10" stroke-width="2"/><circle cx="1017.73" cy="97.13" r="29.07" fill="none" stroke="#1d1d1b" stroke-miterlimit="10" stroke-width="2"/><rect x="919.64" y="43.8" width="56" height="18.6" fill="none" stroke="#1d1d1b" stroke-linecap="square" stroke-miterlimit="10" stroke-width="2"/><rect x="919.64" y="62.4" width="56" height="18.6" fill="none" stroke="#1d1d1b" stroke-linecap="square" stroke-miterlimit="10" stroke-width="2"/><rect x="919.64" y="81" width="56" height="18.6" fill="none" stroke="#1d1d1b" stroke-linecap="square" stroke-miterlimit="10" stroke-width="2"/><rect x="919.64" y="99.6" width="56" height="18.6" fill="none" stroke="#1d1d1b" stroke-linecap="square" stroke-miterlimit="10" stroke-width="2"/><line x1="1017.73" y1="126.2" x2="1017.73" y2="230.14" fill="none" stroke="#1d1d1b" stroke-linecap="round" stroke-miterlimit="10" stroke-width="2"/></g><g id="_3F" data-name="3F"><line x1="835.57" y1="238.68" x2="851.47" y2="222.78" fill="none" stroke="#1d1d1b" stroke-linecap="square" stroke-miterlimit="10" stroke-width="2"/><line x1="851.47" y1="238.68" x2="835.57" y2="222.78" fill="none" stroke="#1d1d1b" stroke-linecap="square" stroke-miterlimit="10" stroke-width="2"/><line x1="843.52" y1="158.2" x2="909.2" y2="158.2" fill="none" stroke="#1d1d1b" stroke-linecap="square" stroke-miterlimit="10" stroke-width="2"/><line x1="909.2" y1="158.2" x2="909.2" y2="334.6" fill="none" stroke="#1d1d1b" stroke-linecap="square" stroke-miterlimit="10" stroke-width="2"/><line x1="901.25" y1="334.6" x2="1130.89" y2="334.6" fill="none" stroke="#1d1d1b" stroke-linecap="square" stroke-miterlimit="10" stroke-width="2"/><line x1="952.04" y1="334.6" x2="952.04" y2="375.07" fill="none" stroke="#1d1d1b" stroke-linecap="square" stroke-miterlimit="10" stroke-width="2"/><line x1="944.09" y1="383.02" x2="959.99" y2="367.12" fill="none" stroke="#1d1d1b" stroke-linecap="square" stroke-miterlimit="10" stroke-width="2"/><line x1="959.99" y1="383.02" x2="944.09" y2="367.12" fill="none" stroke="#1d1d1b" stroke-linecap="square" stroke-miterlimit="10" stroke-width="2"/><line x1="1017.73" y1="334.6" x2="1017.73" y2="375.07" fill="none" stroke="#1d1d1b" stroke-linecap="square" stroke-miterlimit="10" stroke-width="2"/><line x1="1009.78" y1="383.02" x2="1025.68" y2="367.12" fill="none" stroke="#1d1d1b" stroke-linecap="square" stroke-miterlimit="10" stroke-width="2"/><line x1="1025.68" y1="383.02" x2="1009.78" y2="367.12" fill="none" stroke="#1d1d1b" stroke-linecap="square" stroke-miterlimit="10" stroke-width="2"/><line x1="992.48" y1="240.48" x2="1017.73" y2="265.73" fill="none" stroke="#1d1d1b" stroke-miterlimit="10" stroke-width="2"/><line x1="1017.73" y1="265.66" x2="1017.73" y2="334.6" fill="none" stroke="#1d1d1b" stroke-linecap="round" stroke-miterlimit="10" stroke-width="2"/><line x1="843.51" y1="158.2" x2="843.51" y2="231.03" fill="none" stroke="#1d1d1b" stroke-linecap="round" stroke-miterlimit="10" stroke-width="2"/></g><g id="_1FP2_Tab" data-name="1FP2_Tab"><rect x="564.65" y="250.62" width="56" height="18.6" fill="none" stroke="#1d1d1b" stroke-linecap="square" stroke-miterlimit="10" stroke-width="2"/><rect x="564.65" y="269.22" width="56" height="18.6" fill="none" stroke="#1d1d1b" stroke-linecap="square" stroke-miterlimit="10" stroke-width="2"/><rect x="564.65" y="287.82" width="56" height="18.6" fill="none" stroke="#1d1d1b" stroke-linecap="square" stroke-miterlimit="10" stroke-width="2"/><rect x="564.65" y="306.42" width="56" height="18.6" fill="none" stroke="#1d1d1b" stroke-linecap="square" stroke-miterlimit="10" stroke-width="2"/><line x1="592.65" y1="212.29" x2="592.65" y2="249.82" fill="none" stroke="#1d1d1b" stroke-linecap="round" stroke-miterlimit="10" stroke-width="2"/></g><g id="_1FP2" data-name="1FP2"><line x1="567.4" y1="187.04" x2="592.65" y2="212.29" fill="none" stroke="#1d1d1b" stroke-miterlimit="10" stroke-width="2"/></g><g id="_1FP1_Tab" data-name="1FP1_Tab"><rect x="487.72" y="250.39" width="56" height="18.6" fill="none" stroke="#1d1d1b" stroke-linecap="square" stroke-miterlimit="10" stroke-width="2"/><rect x="487.72" y="268.99" width="56" height="18.6" fill="none" stroke="#1d1d1b" stroke-linecap="square" stroke-miterlimit="10" stroke-width="2"/><rect x="487.72" y="287.59" width="56" height="18.6" fill="none" stroke="#1d1d1b" stroke-linecap="square" stroke-miterlimit="10" stroke-width="2"/><rect x="487.72" y="306.19" width="56" height="18.6" fill="none" stroke="#1d1d1b" stroke-linecap="square" stroke-miterlimit="10" stroke-width="2"/><line x1="515.72" y1="212.06" x2="515.72" y2="249.59" fill="none" stroke="#1d1d1b" stroke-linecap="round" stroke-miterlimit="10" stroke-width="2"/></g><g id="_1FP1" data-name="1FP1"><line x1="490.47" y1="186.81" x2="515.72" y2="212.06" fill="none" stroke="#1d1d1b" stroke-miterlimit="10" stroke-width="2"/></g><g id="_2FP2_Tab" data-name="2FP2_Tab"><rect x="106.19" y="250.2" width="56" height="18.6" fill="none" stroke="#1d1d1b" stroke-linecap="square" stroke-miterlimit="10" stroke-width="2"/><rect x="106.19" y="268.8" width="56" height="18.6" fill="none" stroke="#1d1d1b" stroke-linecap="square" stroke-miterlimit="10" stroke-width="2"/><rect x="106.19" y="287.4" width="56" height="18.6" fill="none" stroke="#1d1d1b" stroke-linecap="square" stroke-miterlimit="10" stroke-width="2"/><rect x="106.19" y="306" width="56" height="18.6" fill="none" stroke="#1d1d1b" stroke-linecap="square" stroke-miterlimit="10" stroke-width="2"/><line x1="134.19" y1="211.87" x2="134.19" y2="249.4" fill="none" stroke="#1d1d1b" stroke-linecap="round" stroke-miterlimit="10" stroke-width="2"/></g><g id="_2FP2" data-name="2FP2"><line x1="108.94" y1="186.62" x2="134.19" y2="211.87" fill="none" stroke="#1d1d1b" stroke-miterlimit="10" stroke-width="2"/></g><g id="_2FP1_Tab" data-name="2FP1_Tab"><rect x="27.98" y="250.2" width="56" height="18.6" fill="none" stroke="#1d1d1b" stroke-linecap="square" stroke-miterlimit="10" stroke-width="2"/><rect x="27.98" y="268.8" width="56" height="18.6" fill="none" stroke="#1d1d1b" stroke-linecap="square" stroke-miterlimit="10" stroke-width="2"/><rect x="27.98" y="287.4" width="56" height="18.6" fill="none" stroke="#1d1d1b" stroke-linecap="square" stroke-miterlimit="10" stroke-width="2"/><rect x="27.98" y="306" width="56" height="18.6" fill="none" stroke="#1d1d1b" stroke-linecap="square" stroke-miterlimit="10" stroke-width="2"/><line x1="55.98" y1="211.87" x2="55.98" y2="249.4" fill="none" stroke="#1d1d1b" stroke-linecap="round" stroke-miterlimit="10" stroke-width="2"/></g><g id="_2FP1" data-name="2FP1"><line x1="30.73" y1="186.62" x2="55.98" y2="211.87" fill="none" stroke="#1d1d1b" stroke-miterlimit="10" stroke-width="2"/></g><g id="_3F2_Tab" data-name="3F2_Tab"><rect x="989.73" y="447.6" width="56" height="18.6" fill="none" stroke="#1d1d1b" stroke-linecap="square" stroke-miterlimit="10" stroke-width="2"/><rect x="989.73" y="466.2" width="56" height="18.6" fill="none" stroke="#1d1d1b" stroke-linecap="square" stroke-miterlimit="10" stroke-width="2"/><rect x="989.73" y="484.8" width="56" height="18.6" fill="none" stroke="#1d1d1b" stroke-linecap="square" stroke-miterlimit="10" stroke-width="2"/><rect x="989.73" y="503.4" width="56" height="18.6" fill="none" stroke="#1d1d1b" stroke-linecap="square" stroke-miterlimit="10" stroke-width="2"/><line x1="1017.73" y1="410.07" x2="1017.73" y2="447.6" fill="none" stroke="#1d1d1b" stroke-linecap="round" stroke-miterlimit="10" stroke-width="2"/></g><g id="_3F2" data-name="3F2"><line x1="992.48" y1="384.82" x2="1017.73" y2="410.07" fill="none" stroke="#1d1d1b" stroke-miterlimit="10" stroke-width="2"/></g><g id="_3F1_Tab" data-name="3F1_Tab"><rect x="924.04" y="447.6" width="56" height="18.6" fill="none" stroke="#1d1d1b" stroke-linecap="square" stroke-miterlimit="10" stroke-width="2"/><rect x="924.04" y="466.2" width="56" height="18.6" fill="none" stroke="#1d1d1b" stroke-linecap="square" stroke-miterlimit="10" stroke-width="2"/><rect x="924.04" y="484.8" width="56" height="18.6" fill="none" stroke="#1d1d1b" stroke-linecap="square" stroke-miterlimit="10" stroke-width="2"/><rect x="924.04" y="503.4" width="56" height="18.6" fill="none" stroke="#1d1d1b" stroke-linecap="square" stroke-miterlimit="10" stroke-width="2"/><line x1="952.04" y1="410.07" x2="952.04" y2="447.6" fill="none" stroke="#1d1d1b" stroke-linecap="round" stroke-miterlimit="10" stroke-width="2"/></g><g id="_3F1" data-name="3F1"><line x1="926.79" y1="384.82" x2="952.04" y2="410.07" fill="none" stroke="#1d1d1b" stroke-miterlimit="10" stroke-width="2"/></g><g id="_1F7_Tab" data-name="1F7_Tab"><rect x="816.8" y="447.6" width="56" height="18.6" fill="none" stroke="#1d1d1b" stroke-linecap="square" stroke-miterlimit="10" stroke-width="2"/><rect x="816.8" y="466.2" width="56" height="18.6" fill="none" stroke="#1d1d1b" stroke-linecap="square" stroke-miterlimit="10" stroke-width="2"/><rect x="816.8" y="484.8" width="56" height="18.6" fill="none" stroke="#1d1d1b" stroke-linecap="square" stroke-miterlimit="10" stroke-width="2"/><rect x="816.8" y="503.4" width="56" height="18.6" fill="none" stroke="#1d1d1b" stroke-linecap="square" stroke-miterlimit="10" stroke-width="2"/><line x1="844.8" y1="410.07" x2="844.8" y2="447.6" fill="none" stroke="#1d1d1b" stroke-linecap="round" stroke-miterlimit="10" stroke-width="2"/></g><g id="_1F7" data-name="1F7"><line x1="819.55" y1="384.82" x2="844.8" y2="410.07" fill="none" stroke="#1d1d1b" stroke-miterlimit="10" stroke-width="2"/></g><g id="_1F6_Tab" data-name="1F6_Tab"><rect x="751.12" y="447.6" width="56" height="18.6" fill="none" stroke="#1d1d1b" stroke-linecap="square" stroke-miterlimit="10" stroke-width="2"/><rect x="751.12" y="466.2" width="56" height="18.6" fill="none" stroke="#1d1d1b" stroke-linecap="square" stroke-miterlimit="10" stroke-width="2"/><rect x="751.12" y="484.8" width="56" height="18.6" fill="none" stroke="#1d1d1b" stroke-linecap="square" stroke-miterlimit="10" stroke-width="2"/><rect x="751.12" y="503.4" width="56" height="18.6" fill="none" stroke="#1d1d1b" stroke-linecap="square" stroke-miterlimit="10" stroke-width="2"/><line x1="779.12" y1="410.07" x2="779.12" y2="447.6" fill="none" stroke="#1d1d1b" stroke-linecap="round" stroke-miterlimit="10" stroke-width="2"/></g><g id="_1F6" data-name="1F6"><line x1="753.87" y1="384.82" x2="779.12" y2="410.07" fill="none" stroke="#1d1d1b" stroke-miterlimit="10" stroke-width="2"/></g><g id="_1F5_Tab" data-name="1F5_Tab"><rect x="685.44" y="447.6" width="56" height="18.6" fill="none" stroke="#1d1d1b" stroke-linecap="square" stroke-miterlimit="10" stroke-width="2"/><rect x="685.44" y="466.2" width="56" height="18.6" fill="none" stroke="#1d1d1b" stroke-linecap="square" stroke-miterlimit="10" stroke-width="2"/><rect x="685.44" y="484.8" width="56" height="18.6" fill="none" stroke="#1d1d1b" stroke-linecap="square" stroke-miterlimit="10" stroke-width="2"/><rect x="685.44" y="503.4" width="56" height="18.6" fill="none" stroke="#1d1d1b" stroke-linecap="square" stroke-miterlimit="10" stroke-width="2"/><line x1="713.44" y1="410.07" x2="713.44" y2="447.6" fill="none" stroke="#1d1d1b" stroke-linecap="round" stroke-miterlimit="10" stroke-width="2"/></g><g id="_1F5" data-name="1F5"><line x1="688.19" y1="384.82" x2="713.44" y2="410.07" fill="none" stroke="#1d1d1b" stroke-miterlimit="10" stroke-width="2"/></g><g id="_1F4_Tab" data-name="1F4_Tab"><rect x="619.75" y="447.6" width="56" height="18.6" fill="none" stroke="#1d1d1b" stroke-linecap="square" stroke-miterlimit="10" stroke-width="2"/><rect x="619.75" y="466.2" width="56" height="18.6" fill="none" stroke="#1d1d1b" stroke-linecap="square" stroke-miterlimit="10" stroke-width="2"/><rect x="619.75" y="484.8" width="56" height="18.6" fill="none" stroke="#1d1d1b" stroke-linecap="square" stroke-miterlimit="10" stroke-width="2"/><rect x="619.75" y="503.4" width="56" height="18.6" fill="none" stroke="#1d1d1b" stroke-linecap="square" stroke-miterlimit="10" stroke-width="2"/><line x1="647.75" y1="410.07" x2="647.75" y2="447.6" fill="none" stroke="#1d1d1b" stroke-linecap="round" stroke-miterlimit="10" stroke-width="2"/></g><g id="_1F4" data-name="1F4"><line x1="622.5" y1="384.82" x2="647.75" y2="410.07" fill="none" stroke="#1d1d1b" stroke-miterlimit="10" stroke-width="2"/></g><g id="_1F3_Tab" data-name="1F3_Tab"><rect x="554.07" y="447.6" width="56" height="18.6" fill="none" stroke="#1d1d1b" stroke-linecap="square" stroke-miterlimit="10" stroke-width="2"/><rect x="554.07" y="466.2" width="56" height="18.6" fill="none" stroke="#1d1d1b" stroke-linecap="square" stroke-miterlimit="10" stroke-width="2"/><rect x="554.07" y="484.8" width="56" height="18.6" fill="none" stroke="#1d1d1b" stroke-linecap="square" stroke-miterlimit="10" stroke-width="2"/><rect x="554.07" y="503.4" width="56" height="18.6" fill="none" stroke="#1d1d1b" stroke-linecap="square" stroke-miterlimit="10" stroke-width="2"/><line x1="582.07" y1="410.07" x2="582.07" y2="447.6" fill="none" stroke="#1d1d1b" stroke-linecap="round" stroke-miterlimit="10" stroke-width="2"/></g><g id="_1F3" data-name="1F3"><line x1="556.82" y1="384.82" x2="582.07" y2="410.07" fill="none" stroke="#1d1d1b" stroke-miterlimit="10" stroke-width="2"/></g><g id="_1F2_Tab" data-name="1F2_Tab"><rect x="488.39" y="447.6" width="56" height="18.6" fill="none" stroke="#1d1d1b" stroke-linecap="square" stroke-miterlimit="10" stroke-width="2"/><rect x="488.39" y="466.2" width="56" height="18.6" fill="none" stroke="#1d1d1b" stroke-linecap="square" stroke-miterlimit="10" stroke-width="2"/><rect x="488.39" y="484.8" width="56" height="18.6" fill="none" stroke="#1d1d1b" stroke-linecap="square" stroke-miterlimit="10" stroke-width="2"/><rect x="488.39" y="503.4" width="56" height="18.6" fill="none" stroke="#1d1d1b" stroke-linecap="square" stroke-miterlimit="10" stroke-width="2"/><line x1="516.39" y1="410.07" x2="516.39" y2="447.6" fill="none" stroke="#1d1d1b" stroke-linecap="round" stroke-miterlimit="10" stroke-width="2"/></g><g id="_1F2" data-name="1F2"><line x1="491.14" y1="384.82" x2="516.39" y2="410.07" fill="none" stroke="#1d1d1b" stroke-miterlimit="10" stroke-width="2"/></g><g id="_1F1_Tab" data-name="1F1_Tab"><rect x="422.71" y="447.6" width="56" height="18.6" fill="none" stroke="#1d1d1b" stroke-linecap="square" stroke-miterlimit="10" stroke-width="2"/><rect x="422.71" y="466.2" width="56" height="18.6" fill="none" stroke="#1d1d1b" stroke-linecap="square" stroke-miterlimit="10" stroke-width="2"/><rect x="422.71" y="484.8" width="56" height="18.6" fill="none" stroke="#1d1d1b" stroke-linecap="square" stroke-miterlimit="10" stroke-width="2"/><rect x="422.71" y="503.4" width="56" height="18.6" fill="none" stroke="#1d1d1b" stroke-linecap="square" stroke-miterlimit="10" stroke-width="2"/><line x1="450.71" y1="410.07" x2="450.71" y2="447.6" fill="none" stroke="#1d1d1b" stroke-linecap="round" stroke-miterlimit="10" stroke-width="2"/></g><g id="_1F1" data-name="1F1"><line x1="425.46" y1="384.82" x2="450.71" y2="410.07" fill="none" stroke="#1d1d1b" stroke-miterlimit="10" stroke-width="2"/></g><g id="Parking_Tab"><rect x="357.03" y="447.6" width="56" height="18.6" fill="none" stroke="#1d1d1b" stroke-linecap="square" stroke-miterlimit="10" stroke-width="2"/><rect x="357.03" y="466.2" width="56" height="18.6" fill="none" stroke="#1d1d1b" stroke-linecap="square" stroke-miterlimit="10" stroke-width="2"/><rect x="357.03" y="484.8" width="56" height="18.6" fill="none" stroke="#1d1d1b" stroke-linecap="square" stroke-miterlimit="10" stroke-width="2"/><rect x="357.03" y="503.4" width="56" height="18.6" fill="none" stroke="#1d1d1b" stroke-linecap="square" stroke-miterlimit="10" stroke-width="2"/><line x1="385.03" y1="410.07" x2="385.03" y2="447.6" fill="none" stroke="#1d1d1b" stroke-linecap="round" stroke-miterlimit="10" stroke-width="2"/></g><g id="Parking"><line x1="359.78" y1="384.82" x2="385.03" y2="410.07" fill="none" stroke="#1d1d1b" stroke-miterlimit="10" stroke-width="2"/></g><g id="_2F5_Tab" data-name="2F5_Tab"><rect x="291.34" y="447.6" width="56" height="18.6" fill="none" stroke="#1d1d1b" stroke-linecap="square" stroke-miterlimit="10" stroke-width="2"/><rect x="291.34" y="466.2" width="56" height="18.6" fill="none" stroke="#1d1d1b" stroke-linecap="square" stroke-miterlimit="10" stroke-width="2"/><rect x="291.34" y="484.8" width="56" height="18.6" fill="none" stroke="#1d1d1b" stroke-linecap="square" stroke-miterlimit="10" stroke-width="2"/><rect x="291.34" y="503.4" width="56" height="18.6" fill="none" stroke="#1d1d1b" stroke-linecap="square" stroke-miterlimit="10" stroke-width="2"/><line x1="319.34" y1="410.07" x2="319.34" y2="447.6" fill="none" stroke="#1d1d1b" stroke-linecap="round" stroke-miterlimit="10" stroke-width="2"/></g><g id="_2F5" data-name="2F5"><line x1="294.09" y1="384.82" x2="319.34" y2="410.07" fill="none" stroke="#1d1d1b" stroke-miterlimit="10" stroke-width="2"/></g><g id="_2F4_Tab" data-name="2F4_Tab"><rect x="225.66" y="447.6" width="56" height="18.6" fill="none" stroke="#1d1d1b" stroke-linecap="square" stroke-miterlimit="10" stroke-width="2"/><rect x="225.66" y="466.2" width="56" height="18.6" fill="none" stroke="#1d1d1b" stroke-linecap="square" stroke-miterlimit="10" stroke-width="2"/><rect x="225.66" y="484.8" width="56" height="18.6" fill="none" stroke="#1d1d1b" stroke-linecap="square" stroke-miterlimit="10" stroke-width="2"/><rect x="225.66" y="503.4" width="56" height="18.6" fill="none" stroke="#1d1d1b" stroke-linecap="square" stroke-miterlimit="10" stroke-width="2"/><line x1="253.66" y1="410.07" x2="253.66" y2="447.6" fill="none" stroke="#1d1d1b" stroke-linecap="round" stroke-miterlimit="10" stroke-width="2"/></g><g id="_2F4" data-name="2F4"><line x1="228.41" y1="384.82" x2="253.66" y2="410.07" fill="none" stroke="#1d1d1b" stroke-miterlimit="10" stroke-width="2"/></g><g id="_2F3_Tab" data-name="2F3_Tab"><rect x="159.98" y="447.6" width="56" height="18.6" fill="none" stroke="#1d1d1b" stroke-linecap="square" stroke-miterlimit="10" stroke-width="2"/><rect x="159.98" y="466.2" width="56" height="18.6" fill="none" stroke="#1d1d1b" stroke-linecap="square" stroke-miterlimit="10" stroke-width="2"/><rect x="159.98" y="484.8" width="56" height="18.6" fill="none" stroke="#1d1d1b" stroke-linecap="square" stroke-miterlimit="10" stroke-width="2"/><rect x="159.98" y="503.4" width="56" height="18.6" fill="none" stroke="#1d1d1b" stroke-linecap="square" stroke-miterlimit="10" stroke-width="2"/><line x1="187.98" y1="410.07" x2="187.98" y2="447.6" fill="none" stroke="#1d1d1b" stroke-linecap="round" stroke-miterlimit="10" stroke-width="2"/></g><g id="_2F3" data-name="2F3"><line x1="162.73" y1="384.82" x2="187.98" y2="410.07" fill="none" stroke="#1d1d1b" stroke-miterlimit="10" stroke-width="2"/></g><g id="_2F2_Tab" data-name="2F2_Tab"><rect x="94.3" y="447.6" width="56" height="18.6" fill="none" stroke="#1d1d1b" stroke-linecap="square" stroke-miterlimit="10" stroke-width="2"/><rect x="94.3" y="466.2" width="56" height="18.6" fill="none" stroke="#1d1d1b" stroke-linecap="square" stroke-miterlimit="10" stroke-width="2"/><rect x="94.3" y="484.8" width="56" height="18.6" fill="none" stroke="#1d1d1b" stroke-linecap="square" stroke-miterlimit="10" stroke-width="2"/><rect x="94.3" y="503.4" width="56" height="18.6" fill="none" stroke="#1d1d1b" stroke-linecap="square" stroke-miterlimit="10" stroke-width="2"/><line x1="122.3" y1="410.07" x2="122.3" y2="447.6" fill="none" stroke="#1d1d1b" stroke-linecap="round" stroke-miterlimit="10" stroke-width="2"/></g><g id="_2F2" data-name="2F2"><line x1="97.05" y1="384.82" x2="122.3" y2="410.07" fill="none" stroke="#1d1d1b" stroke-miterlimit="10" stroke-width="2"/></g><g id="_2F1_Tab" data-name="2F1_Tab"><rect x="27.98" y="447.6" width="56" height="18.6" fill="none" stroke="#1d1d1b" stroke-linecap="square" stroke-miterlimit="10" stroke-width="2"/><rect x="27.98" y="466.2" width="56" height="18.6" fill="none" stroke="#1d1d1b" stroke-linecap="square" stroke-miterlimit="10" stroke-width="2"/><rect x="27.98" y="484.8" width="56" height="18.6" fill="none" stroke="#1d1d1b" stroke-linecap="square" stroke-miterlimit="10" stroke-width="2"/><rect x="27.98" y="503.4" width="56" height="18.6" fill="none" stroke="#1d1d1b" stroke-linecap="square" stroke-miterlimit="10" stroke-width="2"/><line x1="55.98" y1="410.07" x2="55.98" y2="447.6" fill="none" stroke="#1d1d1b" stroke-linecap="round" stroke-miterlimit="10" stroke-width="2"/></g><g id="_2F1" data-name="2F1"><line x1="30.72" y1="384.82" x2="55.97" y2="410.07" fill="none" stroke="#1d1d1b" stroke-miterlimit="10" stroke-width="2"/></g></svg>