<svg xmlns="http://www.w3.org/2000/svg" viewBox="0 0 136.83 136.83"><title>G_NSE0_XX_90365Y</title><g id="GRAPHIC"><path d="M168.54,42.37a1.7,1.7,0,0,0-1.7-1.7" transform="translate(-35.59 -36.79)" fill="none" stroke="#070605" stroke-linecap="round" stroke-linejoin="round" stroke-width="0.37"/><line x1="131.25" y1="3.88" x2="5.58" y2="3.88" fill="none" stroke="#070605" stroke-linecap="round" stroke-linejoin="round" stroke-width="0.37"/><line x1="3.88" y1="5.58" x2="3.88" y2="131.25" fill="none" stroke="#070605" stroke-linecap="round" stroke-linejoin="round" stroke-width="0.37"/><path d="M39.47,168a1.7,1.7,0,0,0,1.7,1.7" transform="translate(-35.59 -36.79)" fill="none" stroke="#070605" stroke-linecap="round" stroke-linejoin="round" stroke-width="0.37"/><path d="M41.17,40.67a1.7,1.7,0,0,0-1.7,1.7" transform="translate(-35.59 -36.79)" fill="none" stroke="#070605" stroke-linecap="round" stroke-linejoin="round" stroke-width="0.37"/><line x1="132.95" y1="131.25" x2="132.95" y2="5.58" fill="none" stroke="#070605" stroke-linecap="round" stroke-linejoin="round" stroke-width="0.37"/><path d="M170.54,173.26a2,2,0,0,0,.66-.11h0a1.37,1.37,0,0,0,.55-.41h0a1.23,1.23,0,0,0,.25-.48h0a1.88,1.88,0,0,0,.06-.53" transform="translate(-35.59 -36.79)" fill="none" stroke="#070605" stroke-linecap="round" stroke-linejoin="round" stroke-width="0.71"/><line x1="136.47" y1="134.95" x2="136.47" y2="1.88" fill="none" stroke="#070605" stroke-linecap="round" stroke-linejoin="round" stroke-width="0.71"/><path d="M172.06,38.67A2.14,2.14,0,0,0,172,38h0a1.34,1.34,0,0,0-.41-.54h0a1.28,1.28,0,0,0-.47-.26h0a3.07,3.07,0,0,0-.53-.06" transform="translate(-35.59 -36.79)" fill="none" stroke="#070605" stroke-linecap="round" stroke-linejoin="round" stroke-width="0.71"/><line x1="134.95" y1="0.35" x2="1.88" y2="0.35" fill="none" stroke="#070605" stroke-linecap="round" stroke-linejoin="round" stroke-width="0.71"/><path d="M37.47,37.14a2.4,2.4,0,0,0-.66.11h0a1.5,1.5,0,0,0-.55.42h0a1.42,1.42,0,0,0-.25.47h0a1.88,1.88,0,0,0-.06.53" transform="translate(-35.59 -36.79)" fill="none" stroke="#070605" stroke-linecap="round" stroke-linejoin="round" stroke-width="0.71"/><line x1="0.35" y1="1.88" x2="0.35" y2="134.95" fill="none" stroke="#070605" stroke-linecap="round" stroke-linejoin="round" stroke-width="0.71"/><path d="M36,171.73a2.14,2.14,0,0,0,.11.67h0a1.37,1.37,0,0,0,.41.55h0a1.38,1.38,0,0,0,.48.25h0a2.18,2.18,0,0,0,.52.06" transform="translate(-35.59 -36.79)" fill="none" stroke="#070605" stroke-linecap="round" stroke-linejoin="round" stroke-width="0.71"/><line x1="1.88" y1="136.47" x2="134.95" y2="136.47" fill="none" stroke="#070605" stroke-linecap="round" stroke-linejoin="round" stroke-width="0.71"/><line x1="5.58" y1="132.95" x2="131.25" y2="132.95" fill="none" stroke="#070605" stroke-linecap="round" stroke-linejoin="round" stroke-width="0.37"/><path d="M166.84,169.74a1.7,1.7,0,0,0,1.7-1.7" transform="translate(-35.59 -36.79)" fill="none" stroke="#070605" stroke-linecap="round" stroke-linejoin="round" stroke-width="0.37"/><line x1="15.8" y1="19.71" x2="15.8" y2="97.28" fill="none" stroke="#070605" stroke-linecap="round" stroke-linejoin="round" stroke-width="0.37"/><path d="M52.52,55.36a1.14,1.14,0,0,0-1.13,1.14" transform="translate(-35.59 -36.79)" fill="none" stroke="#070605" stroke-linecap="round" stroke-linejoin="round" stroke-width="0.37"/><path d="M156.62,56.5a1.13,1.13,0,0,0-1.13-1.14" transform="translate(-35.59 -36.79)" fill="none" stroke="#070605" stroke-linecap="round" stroke-linejoin="round" stroke-width="0.37"/><line x1="121.03" y1="97.28" x2="121.03" y2="19.71" fill="none" stroke="#070605" stroke-linecap="round" stroke-linejoin="round" stroke-width="0.37"/><path d="M155.49,135.2a1.12,1.12,0,0,0,1.13-1.13" transform="translate(-35.59 -36.79)" fill="none" stroke="#070605" stroke-linecap="round" stroke-linejoin="round" stroke-width="0.37"/><line x1="16.93" y1="98.41" x2="119.9" y2="98.41" fill="none" stroke="#070605" stroke-linecap="round" stroke-linejoin="round" stroke-width="0.37"/><path d="M51.39,134.07a1.13,1.13,0,0,0,1.13,1.13" transform="translate(-35.59 -36.79)" fill="none" stroke="#070605" stroke-linecap="round" stroke-linejoin="round" stroke-width="0.37"/><line x1="119.9" y1="18.57" x2="16.93" y2="18.57" fill="none" stroke="#070605" stroke-linecap="round" stroke-linejoin="round" stroke-width="0.37"/><line x1="15.8" y1="94.74" x2="5.18" y2="94.74" fill="none" stroke="#070605" stroke-linecap="round" stroke-linejoin="round" stroke-width="0.37"/><line x1="5.18" y1="94.74" x2="5.18" y2="131.63" fill="none" stroke="#070605" stroke-linecap="round" stroke-linejoin="round" stroke-width="0.37"/><line x1="5.18" y1="131.63" x2="131.31" y2="131.63" fill="none" stroke="#070605" stroke-linecap="round" stroke-linejoin="round" stroke-width="0.37"/><line x1="131.31" y1="131.63" x2="131.31" y2="94.74" fill="none" stroke="#070605" stroke-linecap="round" stroke-linejoin="round" stroke-width="0.37"/><line x1="131.31" y1="94.74" x2="121.03" y2="94.74" fill="none" stroke="#070605" stroke-linecap="round" stroke-linejoin="round" stroke-width="0.37"/><path d="M149.21,155.23a8,8,0,0,0-8-8,8.29,8.29,0,0,0-2.83.52" transform="translate(-35.59 -36.79)" fill="none" stroke="#070605" stroke-linecap="round" stroke-linejoin="round" stroke-width="0.37"/><path d="M112.69,148.14a8,8,0,1,0,11.72,7.09" transform="translate(-35.59 -36.79)" fill="none" stroke="#070605" stroke-linecap="round" stroke-linejoin="round" stroke-width="0.37"/><path d="M124.41,155.23a8,8,0,0,0-8-8,8.35,8.35,0,0,0-2.84.52" transform="translate(-35.59 -36.79)" fill="none" stroke="#070605" stroke-linecap="round" stroke-linejoin="round" stroke-width="0.37"/><path d="M87.89,148.14a8,8,0,1,0,11.72,7.09" transform="translate(-35.59 -36.79)" fill="none" stroke="#070605" stroke-linecap="round" stroke-linejoin="round" stroke-width="0.37"/><path d="M99.61,155.23a8,8,0,0,0-8-8,8.35,8.35,0,0,0-2.84.52" transform="translate(-35.59 -36.79)" fill="none" stroke="#070605" stroke-linecap="round" stroke-linejoin="round" stroke-width="0.37"/><path d="M63.09,148.14a8,8,0,1,0,11.72,7.09" transform="translate(-35.59 -36.79)" fill="none" stroke="#070605" stroke-linecap="round" stroke-linejoin="round" stroke-width="0.37"/><path d="M74.81,155.23a8,8,0,0,0-8-8,8.35,8.35,0,0,0-2.84.52" transform="translate(-35.59 -36.79)" fill="none" stroke="#070605" stroke-linecap="round" stroke-linejoin="round" stroke-width="0.37"/><path d="M137.33,148.14a8.08,8.08,0,1,0,11.95,7.09" transform="translate(-35.59 -36.79)" fill="none" stroke="#070605" stroke-linecap="round" stroke-linejoin="round" stroke-width="0.37"/><path d="M124.41,155.23a8,8,0,0,0-8-8,7.89,7.89,0,0,0-2.84.52" transform="translate(-35.59 -36.79)" fill="none" stroke="#070605" stroke-linecap="round" stroke-linejoin="round" stroke-width="0.37"/><line x1="102.78" y1="111.35" x2="102.78" y2="102.85" fill="none" stroke="#070605" stroke-linecap="round" stroke-linejoin="round" stroke-width="0.37"/><line x1="94.28" y1="111.35" x2="102.78" y2="111.35" fill="none" stroke="#070605" stroke-linecap="round" stroke-linejoin="round" stroke-width="0.37"/><line x1="94.28" y1="102.85" x2="94.28" y2="111.35" fill="none" stroke="#070605" stroke-linecap="round" stroke-linejoin="round" stroke-width="0.37"/><line x1="102.78" y1="102.85" x2="94.28" y2="102.85" fill="none" stroke="#070605" stroke-linecap="round" stroke-linejoin="round" stroke-width="0.37"/><line x1="69.48" y1="102.85" x2="69.48" y2="111.35" fill="none" stroke="#070605" stroke-linecap="round" stroke-linejoin="round" stroke-width="0.37"/><line x1="77.98" y1="102.85" x2="69.48" y2="102.85" fill="none" stroke="#070605" stroke-linecap="round" stroke-linejoin="round" stroke-width="0.37"/><line x1="77.98" y1="111.35" x2="77.98" y2="102.85" fill="none" stroke="#070605" stroke-linecap="round" stroke-linejoin="round" stroke-width="0.37"/><line x1="69.48" y1="111.35" x2="77.98" y2="111.35" fill="none" stroke="#070605" stroke-linecap="round" stroke-linejoin="round" stroke-width="0.37"/><line x1="44.68" y1="102.85" x2="44.68" y2="111.35" fill="none" stroke="#070605" stroke-linecap="round" stroke-linejoin="round" stroke-width="0.37"/><line x1="53.18" y1="102.85" x2="44.68" y2="102.85" fill="none" stroke="#070605" stroke-linecap="round" stroke-linejoin="round" stroke-width="0.37"/><line x1="53.18" y1="111.35" x2="53.18" y2="102.85" fill="none" stroke="#070605" stroke-linecap="round" stroke-linejoin="round" stroke-width="0.37"/><line x1="44.68" y1="111.35" x2="53.18" y2="111.35" fill="none" stroke="#070605" stroke-linecap="round" stroke-linejoin="round" stroke-width="0.37"/><line x1="19.88" y1="111.35" x2="28.38" y2="111.35" fill="none" stroke="#070605" stroke-linecap="round" stroke-linejoin="round" stroke-width="0.37"/><line x1="19.88" y1="102.85" x2="19.88" y2="111.35" fill="none" stroke="#070605" stroke-linecap="round" stroke-linejoin="round" stroke-width="0.37"/><line x1="28.38" y1="111.35" x2="28.38" y2="102.85" fill="none" stroke="#070605" stroke-linecap="round" stroke-linejoin="round" stroke-width="0.37"/><line x1="28.38" y1="102.85" x2="19.88" y2="102.85" fill="none" stroke="#070605" stroke-linecap="round" stroke-linejoin="round" stroke-width="0.37"/><line x1="0.35" y1="1.17" x2="0.35" y2="1.17" fill="none" stroke="#070605" stroke-linecap="round" stroke-linejoin="round" stroke-width="0.37"/><line x1="136.47" y1="1.17" x2="136.47" y2="1.17" fill="none" stroke="#070605" stroke-linecap="round" stroke-linejoin="round" stroke-width="0.37"/><line x1="5.28" y1="0.35" x2="5.28" y2="0.35" fill="none" stroke="#070605" stroke-linecap="round" stroke-linejoin="round" stroke-width="0.37"/><line x1="5.28" y1="136.47" x2="5.28" y2="136.47" fill="none" stroke="#070605" stroke-linecap="round" stroke-linejoin="round" stroke-width="0.37"/><line x1="0.46" y1="127.83" x2="0.46" y2="127.83" fill="none" stroke="#070605" stroke-linecap="round" stroke-linejoin="round" stroke-width="0.37"/><text transform="translate(82.32 41.32)" fontSize="20" fill="#080305" font-family="ArialUnicodeMS, Arial Unicode MS"><tspan letter-spacing="0.01em">00</tspan><tspan x="22.79" y="0">0</tspan><tspan x="4.7" y="24" letter-spacing="-0.1em">11</tspan><tspan x="22.79" y="24">1</tspan><tspan x="0.44" y="48" letter-spacing="0em">22</tspan><tspan x="22.79" y="48">2</tspan></text></g><g id="TEXT_NEUTRAL"><text transform="translate(10.72 13.85)" fontSize="5.21" fill="#070605" font-family="SiemensSans-Roman, Siemens Sans">SIEMENS</text><text transform="translate(68.77 13.78)" fontSize="7.29" fill="#070605" font-family="SiemensSans-Roman, Siemens Sans">SENT<tspan x="16.44" y="0" letter-spacing="0em">R</tspan><tspan x="20.36" y="0">ON </tspan><tspan x="32.47" y="0" letter-spacing="-0.04em">P</tspan><tspan x="35.86" y="0" letter-spacing="-0.02em">A</tspan><tspan x="40.23" y="0">C3200</tspan></text></g></svg>